<?xml version="1.0" standalone="no"?>
<!DOCTYPE svg PUBLIC "-//W3C//DTD SVG 20010904//EN"
 "http://www.w3.org/TR/2001/REC-SVG-20010904/DTD/svg10.dtd">
<svg version="1.0" xmlns="http://www.w3.org/2000/svg"
 width="579.000000pt" height="577.000000pt" viewBox="0 0 579.000000 577.000000"
 preserveAspectRatio="xMidYMid meet">

<g transform="translate(0.000000,577.000000) scale(0.100000,-0.100000)"
fill="#000000" stroke="none">
<path d="M2478 5750 c-216 -32 -432 -90 -643 -172 -114 -45 -245 -104 -245
-111 0 -1 6 -18 12 -37 10 -28 14 -586 18 -2610 l5 -2574 105 -48 c133 -60
370 -138 525 -172 l120 -27 555 3 555 4 136 36 c219 59 386 121 581 219 135
67 318 176 318 189 0 5 -304 394 -675 866 l-676 858 -132 43 c-563 184 -1007
631 -1185 1195 -61 191 -84 346 -84 563 0 110 7 219 16 280 104 681 582 1253
1231 1474 l120 41 -265 -1 c-201 -1 -296 -5 -392 -19z"/>
<path d="M632 4696 c-106 -121 -258 -363 -358 -571 -116 -241 -194 -482 -250
-775 -25 -130 -32 -739 -9 -892 70 -487 260 -945 556 -1341 41 -54 80 -103 87
-109 9 -8 12 364 12 1856 0 1026 -2 1866 -4 1866 -2 0 -17 -15 -34 -34z"/>
<path d="M5454 4235 c4 -22 9 -105 12 -185 32 -731 -373 -1414 -1028 -1736
-62 -30 -113 -59 -113 -64 0 -10 884 -1134 895 -1138 11 -4 157 214 229 344
150 269 259 573 316 882 24 127 25 151 25 526 0 351 -2 405 -20 507 -53 294
-157 601 -281 830 -38 70 -40 72 -35 34z"/>
</g>
</svg>
