<?xml version="1.0" standalone="no"?>
<!DOCTYPE svg PUBLIC "-//W3C//DTD SVG 20010904//EN"
 "http://www.w3.org/TR/2001/REC-SVG-20010904/DTD/svg10.dtd">
<svg version="1.0" xmlns="http://www.w3.org/2000/svg"
 width="200.000000pt" height="200.000000pt" viewBox="0 0 200.000000 200.000000"
 preserveAspectRatio="xMidYMid meet">

<g transform="translate(0.000000,200.000000) scale(0.100000,-0.100000)"
fill="#000000" stroke="none">
<path d="M895 1839 c-66 -10 -186 -44 -225 -64 l-25 -13 3 -707 2 -706 45 -20
c143 -63 339 -79 490 -40 81 22 227 85 245 106 6 8 -47 82 -171 240 l-180 230
-61 21 c-195 71 -328 263 -328 474 0 185 112 365 276 447 41 20 74 38 74 40 0
5 -81 1 -145 -8z"/>
<path d="M352 1508 c-47 -69 -90 -161 -114 -245 -29 -101 -31 -302 -4 -403 19
-74 94 -230 131 -275 l25 -30 0 498 c0 273 -2 497 -5 497 -2 0 -17 -19 -33
-42z"/>
<path d="M1698 1385 c14 -176 -94 -374 -254 -466 -30 -17 -54 -34 -52 -38 2
-4 55 -73 118 -153 134 -171 123 -169 194 -24 56 114 75 184 83 311 7 114 -11
226 -54 335 -33 83 -39 89 -35 35z"/>
</g>
</svg>
